<?xml version="1.0" encoding="UTF-8"?>
<!-- Generated by Pixelmator Pro 3.7.1 -->
<svg width="2048" height="512" viewBox="0 0 2048 512" xmlns="http://www.w3.org/2000/svg">
    <path id="Path" fill="#ffffff" stroke="none" d="M 87.040001 102.399994 L 128 102.399994 C 130.827698 102.399994 133.119995 104.692291 133.119995 107.519989 L 133.119995 404.480011 C 133.119995 407.307678 130.827698 409.600006 128 409.600006 L 87.040001 409.600006 C 84.212303 409.600006 81.919998 407.307678 81.919998 404.480011 L 81.919998 107.519989 C 81.919998 104.692291 84.212303 102.399994 87.040001 102.399994 Z"/>
    <path id="path1" fill="#ffffff" stroke="none" d="M 87.040001 102.399994 L 166.399994 102.399994 C 169.227692 102.399994 171.520004 104.692291 171.520004 107.519989 L 171.520004 148.480011 C 171.520004 151.307709 169.227692 153.600006 166.399994 153.600006 L 87.040001 153.600006 C 84.212303 153.600006 81.919998 151.307709 81.919998 148.480011 L 81.919998 107.519989 C 81.919998 104.692291 84.212303 102.399994 87.040001 102.399994 Z"/>
    <path id="path2" fill="#ffffff" stroke="none" d="M 87.040001 358.399994 L 166.399994 358.399994 C 169.227692 358.399994 171.520004 360.692322 171.520004 363.52002 L 171.520004 404.480011 C 171.520004 407.307678 169.227692 409.600006 166.399994 409.600006 L 87.040001 409.600006 C 84.212303 409.600006 81.919998 407.307678 81.919998 404.480011 L 81.919998 363.52002 C 81.919998 360.692322 84.212303 358.399994 87.040001 358.399994 Z"/>
    <text id="1" xml:space="preserve" x="223" y="331" font-family="Helvetica" font-size="174.08" fill="#30d158">1</text>
    <path id="path3" fill="#ff453a" stroke="#ff453a" stroke-width="15.36" d="M 442.880005 217.600006 C 442.880005 243.049286 422.249298 263.679993 396.799988 263.679993 C 371.350708 263.679993 350.720001 243.049286 350.720001 217.600006 C 350.720001 192.150726 371.350708 171.519989 396.799988 171.519989 C 422.249298 171.519989 442.880005 192.150726 442.880005 217.600006 Z"/>
    <path id="path4" fill="#000000" stroke="#ff453a" stroke-width="20.48" stroke-linecap="round" d="M 430.079987 250.880005 L 473.600006 294.399994"/>
    <path id="path5" fill="#ffffff" stroke="none" d="M 563.200012 102.399994 L 604.159973 102.399994 C 606.987671 102.399994 609.280029 104.692291 609.280029 107.519989 L 609.280029 404.480011 C 609.280029 407.307678 606.987671 409.600006 604.159973 409.600006 L 563.200012 409.600006 C 560.372314 409.600006 558.080017 407.307678 558.080017 404.480011 L 558.080017 107.519989 C 558.080017 104.692291 560.372314 102.399994 563.200012 102.399994 Z"/>
    <path id="path6" fill="#ffffff" stroke="none" d="M 524.799988 102.399994 L 604.159973 102.399994 C 606.987671 102.399994 609.280029 104.692291 609.280029 107.519989 L 609.280029 148.480011 C 609.280029 151.307709 606.987671 153.600006 604.159973 153.600006 L 524.799988 153.600006 C 521.97229 153.600006 519.679993 151.307709 519.679993 148.480011 L 519.679993 107.519989 C 519.679993 104.692291 521.97229 102.399994 524.799988 102.399994 Z"/>
    <path id="path7" fill="#ffffff" stroke="none" d="M 524.799988 358.399994 L 604.159973 358.399994 C 606.987671 358.399994 609.280029 360.692322 609.280029 363.52002 L 609.280029 404.480011 C 609.280029 407.307678 606.987671 409.600006 604.159973 409.600006 L 524.799988 409.600006 C 521.97229 409.600006 519.679993 407.307678 519.679993 404.480011 L 519.679993 363.52002 C 519.679993 360.692322 521.97229 358.399994 524.799988 358.399994 Z"/>
    <text id="monitord" xml:space="preserve" x="715" y="337" font-family="Helvetica" font-size="184.32" fill="#ffffff">monitord</text>
</svg>
